<svg xmlns="http://www.w3.org/2000/svg" viewBox="0 0 24 24">
  <path fill="#339933" d="M11.998,24c-0.321,0-0.641-0.084-0.922-0.247l-2.936-1.737c-0.438-0.245-0.224-0.332-0.08-0.383 c0.585-0.203,0.703-0.25,1.328-0.604c0.065-0.037,0.151-0.023,0.218,0.017l1.862,1.303c0.082,0.057,0.197,0.057,0.272,0 l7.795-4.507c0.082-0.047,0.134-0.141,0.134-0.238V6.921c0-0.099-0.053-0.192-0.137-0.242l-7.791-4.49 c-0.081-0.047-0.189-0.047-0.271,0L3.075,6.68C2.99,6.729,2.936,6.825,2.936,6.921v9.07c0,0.097,0.054,0.191,0.139,0.242 l2.409,1.392c1.307,0.654,2.108-0.116,2.108-0.89V7.787c0-0.142,0.114-0.253,0.256-0.253h1.115c0.139,0,0.255,0.112,0.255,0.253 v10.021c0,1.745-0.95,2.745-2.604,2.745c-0.508,0-0.909,0-2.026-0.551L2.28,18.675c-0.57-0.329-0.922-0.945-0.922-1.6V6.921 c0-0.658,0.353-1.271,0.922-1.599L11.076,0.247c0.557-0.315,1.296-0.315,1.848,0l7.794,4.507c0.57,0.329,0.924,0.944,0.924,1.599 v9.07c0,0.658-0.353,1.273-0.924,1.6l-7.794,4.507C12.643,23.916,12.324,24,11.998,24z"/>
  <path fill="#333333" d="M18.099,13.993c0-1.9,1.284-2.406,2.132-2.759c0.14-0.058,0.312-0.13,0.312-0.254 c0-0.146-0.121-0.236-0.312-0.146c-0.479,0.201-1.304,0.586-1.956,0.944c-0.096,0.054-0.184,0.025-0.184-0.064V8.63 c0-0.121-0.096-0.254-0.184-0.311c-0.521-0.314-1.88-0.682-3.057-0.682c-1.498,0-2.522,0.695-2.522,1.735 c0,1.409,1.232,1.914,2.481,2.529c1.449,0.719,2.848,1.409,2.848,2.853c0,1.38-1.05,2.111-2.848,2.111 c-1.508,0-2.481-0.695-2.481-1.741c0-0.145,0.121-0.254,0.312-0.146c0.479,0.201,1.304,0.586,1.956,0.944 c0.096,0.054,0.184,0.025,0.184-0.064v-1.729c0-0.121,0.096-0.254,0.184-0.311C16.501,14.313,18.099,13.993,18.099,13.993z M8.476,15.24 c-1.252,0-2.481-0.345-2.481-1.193c0-0.146,0.121-0.236,0.312-0.146c0.479,0.201,1.304,0.586,1.956,0.944 c0.096,0.054,0.184,0.025,0.184-0.064v-1.729c0-0.121,0.096-0.254,0.184-0.311c0.521-0.314,1.88-0.682,3.057-0.682 c1.498,0,2.522,0.695,2.522,1.735c0,1.409-1.232,1.914-2.481,2.529c-1.449,0.719-2.848,1.409-2.848,2.853 c0,1.38,1.05,2.111,2.848,2.111c1.508,0,2.481-0.695,2.481-1.741c0-0.145-0.121-0.254-0.312-0.146 c-0.479,0.201-1.304,0.586-1.956,0.944c-0.096,0.054-0.184,0.025-0.184-0.064v-1.729c0-0.121-0.096-0.254-0.184-0.311 C10.28,15.24,8.476,15.24,8.476,15.24z"/>
</svg> 