<svg width="40" height="40" viewBox="0 0 40 40" fill="none" xmlns="http://www.w3.org/2000/svg">
  <rect width="40" height="40" rx="8" fill="white"/>
  <path d="M30 15C30 12 28 10 25 10C23 10 21 11 20 12C19 11 17 10 15 10C12 10 10 12 10 15C10 18 12 20 15 20C16 20 17 19 18 18C18 22 20 24 22 24C24 24 26 22 26 20C27 21 28 22 29 22C30 22 31 21 31 20C30 18 30 16 30 15Z" fill="url(#gradient1)" stroke="#8B5CF6" stroke-width="1"/>
  <defs>
    <linearGradient id="gradient1" x1="0%" y1="0%" x2="100%" y2="100%">
      <stop offset="0%" style="stop-color:#A855F7;stop-opacity:0.8" />
      <stop offset="50%" style="stop-color:#8B5CF6;stop-opacity:1" />
      <stop offset="100%" style="stop-color:#7C3AED;stop-opacity:0.9" />
    </linearGradient>
  </defs>
</svg>
