<svg width="40" height="40" viewBox="0 0 40 40" fill="none" xmlns="http://www.w3.org/2000/svg">
  <rect width="40" height="40" rx="8" fill="#10B981"/>
  <path d="M20 8L32 12L28 24L20 32L12 24L8 12L20 8Z" fill="white"/>
  <path d="M20 12L28 15L25 22L20 28L15 22L12 15L20 12Z" fill="#059669"/>
  <circle cx="20" cy="20" r="3" fill="white"/>
  <path d="M6 18L14 16L12 20L10 24L6 22L6 18Z" fill="#34D399"/>
  <path d="M34 18L26 16L28 20L30 24L34 22L34 18Z" fill="#34D399"/>
  <path d="M18 34L20 26L22 28L24 30L22 34L18 34Z" fill="#34D399"/>
  <path d="M22 6L20 14L18 12L16 10L18 6L22 6Z" fill="#34D399"/>
</svg>
