<svg xmlns="http://www.w3.org/2000/svg" viewBox="0 0 24 24" fill="#00758F">
  <path d="M16.403 12.774a.597.597 0 0 0-.478-.236h-3.404v-1.65h3.404a.597.597 0 0 0 .478-.236l2.115-3.658a.597.597 0 0 0-.478-.958H5.86a.597.597 0 0 0-.478.958l2.115 3.658a.597.597 0 0 0 .478.236h3.404v1.65H8.015a.597.597 0 0 0-.478.236l-2.115 3.658a.597.597 0 0 0 .478.958h12.246a.597.597 0 0 0 .478-.958l-2.115-3.658z"/>
  <path d="M11.521 21.354a.597.597 0 0 1-.597-.597V3.243a.597.597 0 0 1 .597-.597h.958a.597.597 0 0 1 .597.597v17.514a.597.597 0 0 1-.597.597h-.958z" fill="#F29111"/>
</svg> 