<svg xmlns="http://www.w3.org/2000/svg" viewBox="0 0 24 24" fill="#3178C6">
  <path d="M1.125 0C.502 0 0 .502 0 1.125v21.75C0 23.498.502 24 1.125 24h21.75c.623 0 1.125-.502 1.125-1.125V1.125C24 .502 23.498 0 22.875 0zm17.363 9.75c.612 0 1.154.037 1.627.111a6.38 6.38 0 0 1 1.306.34v2.458a3.95 3.95 0 0 0-.643-.361 5.093 5.093 0 0 0-.717-.26 5.453 5.453 0 0 0-1.426-.2c-.3 0-.573.028-.819.086a2.1 2.1 0 0 0-.623.242c-.17.104-.3.229-.393.374a.888.888 0 0 0-.14.49c0 .196.053.373.156.529.104.156.252.304.443.444s.423.276.696.41c.273.135.582.274.926.416.47.197.892.407 1.266.628.374.222.695.473.963.753.268.279.472.598.614.957.142.359.214.776.214 1.253 0 .657-.125 1.21-.373 1.656a3.033 3.033 0 0 1-1.012 1.085 4.38 4.38 0 0 1-1.487.596 6.15 6.15 0 0 1-1.783.258 5.96 5.96 0 0 1-1.876-.29 4.48 4.48 0 0 1-1.534-.834v-2.576a5.033 5.033 0 0 0 3.237 1.2c.333 0 .624-.03.872-.09.249-.06.456-.144.623-.25.166-.108.29-.234.373-.38a1.023 1.023 0 0 0-.074-1.089 2.12 2.12 0 0 0-.537-.5 5.597 5.597 0 0 0-.807-.444 27.72 27.72 0 0 0-1.007-.436 27.43 27.43 0 0 1-1.032-.481 6.033 6.033 0 0 1-.893-.534 3.38 3.38 0 0 1-.695-.641 2.59 2.59 0 0 1-.5-1.01 3.636 3.636 0 0 1-.184-1.316c0-.614.123-1.141.369-1.582.246-.441.58-.804 1.004-1.089a4.494 4.494 0 0 1 1.47-.629 5.597 5.597 0 0 1 1.77-.284zm-15.113.188h9.563v2.166H9.506v9.646H6.789v-9.646H3.375z"></path>
</svg> 